{"title":"Machined.Reborn.2009.SWESUB.DVDRip.XviD.AC3.(5.1).-Zen_Bud","uid":5834704,"size":1471106638,"categoryP":"video","categoryS":"movies","magnet":"?xt=urn:btih:09e7b58aa9eaa25372f8cffb43baee97907b4c8e&amp;dn=Machined.Reborn.2009.SWESUB.DVDRip.XviD.AC3.%285.1%29.-Zen_Bud&amp;tr=udp%3A%2F%2Ftracker.openbittorrent.com%3A80&amp;tr=udp%3A%2F%2Fopen.demonii.com%3A1337&amp;tr=udp%3A%2F%2Ftracker.coppersurfer.tk%3A6969&amp;tr=udp%3A%2F%2Fexodus.desync.com%3A6969","seeders":0,"leechers":1,"uploader":"Zen_Bud","files":-1,"time":1284677524,"description":"\n****** Machined.Reborn.2009.SWESUB.DVDRip.XviD.AC3.(5.1).-Zen_Bud.avi *******\nFormat                           : AVI\nFile size                        : 1.37 GiB\nDuration                         : 1h 27mn\nOverall bit rate                 : 2 234 Kbps\n\nVideo\n\nFormat                           : MPEG-4 Visual\nCodec ID/Hint                    : XviD\nDuration                         : 1h 27mn\nBit rate                         : 1 775 Kbps\nWidth                            : 720 pixels\nHeight                           : 478 pixels\nDisplay aspect ratio             : 16:9\nStream size                      : 1.09 GiB (79%)\nWriting library                  : XviD 1.1.2 (UTC 2006-11-01)\n\nAudio\n\nFormat                           : AC-3\nDuration                         : 1h 27mn\nBit rate                         : 448 Kbps\nChannel(s)                       : 6 channels\nChannel positions                : Front: L C R, Side: L R, LFE\nSampling rate                    : 48.0 KHz\nBit depth                        : 16 bits\nStream size                      : 281 MiB (20%)\n\n\n","torrent":{"xt":"urn:btih:09e7b58aa9eaa25372f8cffb43baee97907b4c8e","amp;dn":"Machined.Reborn.2009.SWESUB.DVDRip.XviD.AC3.%285.1%29.-Zen_Bud","amp;tr":["udp%3A%2F%2Ftracker.openbittorrent.com%3A80","udp%3A%2F%2Fopen.demonii.com%3A1337","udp%3A%2F%2Ftracker.coppersurfer.tk%3A6969","udp%3A%2F%2Fexodus.desync.com%3A6969"],"infoHash":"09e7b58aa9eaa25372f8cffb43baee97907b4c8e","infoHashBuffer":{"type":"Buffer","data":[9,231,181,138,169,234,162,83,114,248,207,251,67,186,238,151,144,123,76,142]},"announce":[],"urlList":[]}}